<?xml version="1.0" encoding="UTF-8" standalone="no"?>
<!-- Created with Inkscape (http://www.inkscape.org/) -->

<svg
   version="1.1"
   id="svg1"
   width="46.664314"
   height="47.151093"
   viewBox="0 0 46.664314 47.151092"
   sodipodi:docname="Hyphen trade card.ai"
   xmlns:inkscape="http://www.inkscape.org/namespaces/inkscape"
   xmlns:sodipodi="http://sodipodi.sourceforge.net/DTD/sodipodi-0.dtd"
   xmlns="http://www.w3.org/2000/svg"
   xmlns:svg="http://www.w3.org/2000/svg">
  <defs
     id="defs1">
    <clipPath
       clipPathUnits="userSpaceOnUse"
       id="clipPath3">
      <path
         d="M 0,841.89 H 595.276 V 0 H 0 Z"
         transform="translate(-86.684102,-639.41462)"
         id="path3" />
    </clipPath>
    <clipPath
       clipPathUnits="userSpaceOnUse"
       id="clipPath5">
      <path
         d="M 0,841.89 H 595.276 V 0 H 0 Z"
         transform="translate(-96.141505,-656.73461)"
         id="path5" />
    </clipPath>
    <clipPath
       clipPathUnits="userSpaceOnUse"
       id="clipPath7">
      <path
         d="M 0,841.89 H 595.276 V 0 H 0 Z"
         transform="translate(-95.884,-656.47712)"
         id="path7" />
    </clipPath>
    <clipPath
       clipPathUnits="userSpaceOnUse"
       id="clipPath9">
      <path
         d="M 0,841.89 H 595.276 V 0 H 0 Z"
         transform="translate(-61.869002,-622.88872)"
         id="path9" />
    </clipPath>
    <clipPath
       clipPathUnits="userSpaceOnUse"
       id="clipPath11">
      <path
         d="M 0,841.89 H 595.276 V 0 H 0 Z"
         transform="translate(-61.869002,-622.88872)"
         id="path11" />
    </clipPath>
  </defs>
  <sodipodi:namedview
     id="namedview1"
     pagecolor="#ffffff"
     bordercolor="#cccccc"
     borderopacity="1"
     inkscape:showpageshadow="0"
     inkscape:pageopacity="1"
     inkscape:pagecheckerboard="0"
     inkscape:deskcolor="#d1d1d1" />
  <g
     id="layer-MC0"
     inkscape:groupmode="layer"
     inkscape:label="Layer 1"
     transform="translate(-103.08601,-381.85718)">
    <g
       id="g21"
       transform="translate(21.075338,135.47107)">
      <path
         id="path2"
         d="m 0,0 c 0,7.259 3.741,13.638 9.405,17.32 h -33.656 c 3,-1.411 5.586,-3.807 7.41,-6.707 6.038,-9.32 2.698,-23.135 -7.397,-27.926 H 9.398 C 3.741,-13.632 0,-7.252 0,0"
         style="fill:#2f6baf;fill-opacity:1;fill-rule:nonzero;stroke:none"
         transform="matrix(1.3333333,0,0,-1.3333333,115.5788,269.9672)"
         clip-path="url(#clipPath3)" />
      <path
         id="path4"
         d="m 0,0 v -34.633 h -0.059 c -5.657,3.681 -9.398,10.061 -9.398,17.313 0,7.259 3.741,13.638 9.405,17.32 z"
         style="fill:#1a3354;fill-opacity:1;fill-rule:nonzero;stroke:none"
         transform="matrix(1.3333333,0,0,-1.3333333,128.18867,246.87387)"
         clip-path="url(#clipPath5)" />
      <path
         id="path6"
         d="m 0,0 c 0.111,-0.157 0.262,-0.094 0.404,-0.048 -10.23,-9.524 -10.228,-24.49 -0.011,-34.02 0.021,-0.011 -0.198,0.059 -0.194,0.056 h 0.058 l -0.364,-0.364 C -0.11,-22.918 -0.064,-11.486 0,0 M 0.515,0.515 C 0.579,-11.209 0.626,-22.989 0.622,-34.74 H 0.257 0.199 0.085 L 0,-34.681 l -0.005,0.003 c -10.625,4.476 -14.24,18.704 -8.073,28.226 1.989,3.167 4.878,5.719 8.221,7.072 0.125,0.016 0.278,-0.027 0.372,-0.105"
         style="fill:#fffeff;fill-opacity:1;fill-rule:nonzero;stroke:none"
         transform="matrix(1.3333333,0,0,-1.3333333,127.84533,247.2172)"
         clip-path="url(#clipPath7)" />
      <path
         id="path8"
         d="M 0,0 C 0.007,11.052 -0.039,22.078 -0.105,33.15 9.556,23.785 9.589,9.418 0,0 m 7.974,27.138 c -1.824,2.901 -4.41,5.297 -7.41,6.708 H -0.361 V -0.788 h 0.939 c 10.094,4.791 13.434,18.607 7.396,27.926"
         style="fill:#fffeff;fill-opacity:1;fill-rule:nonzero;stroke:none"
         transform="matrix(1.3333333,0,0,-1.3333333,82.492,292.00173)"
         clip-path="url(#clipPath9)" />
      <path
         id="path10"
         d="M 0,0 C 0.007,11.052 -0.039,22.078 -0.105,33.15 9.556,23.785 9.589,9.418 0,0"
         style="fill:#1a3354;fill-opacity:1;fill-rule:nonzero;stroke:none"
         transform="matrix(1.3333333,0,0,-1.3333333,82.492,292.00173)"
         clip-path="url(#clipPath11)" />
    </g>
  </g>
</svg>
